<svg width="795" height="402" viewBox="0 0 795 402" fill="none" xmlns="http://www.w3.org/2000/svg">
<g id="logo">
<path id="N" d="M41 372C37.3333 372 34.1667 370.667 31.5 368C28.8333 365.333 27.5 362.167 27.5 358.5V35.5C27.5 31.8333 28.8333 28.6667 31.5 26C34.1667 23.3333 37.3333 22 41 22H120C129.333 22 136.167 25.8333 140.5 33.5L225 172V35.5C225 31.8333 226.333 28.6667 229 26C231.667 23.3333 234.833 22 238.5 22H329C332.667 22 335.833 23.3333 338.5 26C341.167 28.6667 342.5 31.8333 342.5 35.5V358.5C342.5 362.167 341.167 365.333 338.5 368C335.833 370.667 332.667 372 329 372H250C244.333 372 240 370.833 237 368.5C234 366.167 231.5 363.5 229.5 360.5L145 233V358.5C145 362.167 143.667 365.333 141 368C138.333 370.667 135.167 372 131.5 372H41Z" fill="#8FBCBB"/>
<path id="Subtract" fill-rule="evenodd" clip-rule="evenodd" d="M27.5 108V358.5C27.5 362.167 28.8333 365.333 31.5 368C34.1667 370.667 37.3333 372 41 372H131.5C135.167 372 138.333 370.667 141 368C143.667 365.333 145 362.167 145 358.5V233L229.5 360.5C231.5 363.5 234 366.167 237 368.5C240 370.833 244.333 372 250 372H329C332.667 372 335.833 370.667 338.5 368C341.167 365.333 342.5 362.167 342.5 358.5V108H225V172L185.953 108H27.5Z" fill="#88C0D0"/>
<path id="Subtract_2" fill-rule="evenodd" clip-rule="evenodd" d="M27.5 201V358.5C27.5 362.167 28.8333 365.333 31.5 368C34.1667 370.667 37.3333 372 41 372H131.5C135.167 372 138.333 370.667 141 368C143.667 365.333 145 362.167 145 358.5V233L229.5 360.5C231.5 363.5 234 366.167 237 368.5C240 370.833 244.333 372 250 372H329C332.667 372 335.833 370.667 338.5 368C341.167 365.333 342.5 362.167 342.5 358.5V201H27.5Z" fill="#81A1C1"/>
<path id="Subtract_3" fill-rule="evenodd" clip-rule="evenodd" d="M27.5 293V358.5C27.5 362.167 28.8333 365.333 31.5 368C34.1667 370.667 37.3333 372 41 372H131.5C135.167 372 138.333 370.667 141 368C143.667 365.333 145 362.167 145 358.5V293H27.5ZM184.765 293L229.5 360.5C231.5 363.5 234 366.167 237 368.5C240 370.833 244.333 372 250 372H329C332.667 372 335.833 370.667 338.5 368C341.167 365.333 342.5 362.167 342.5 358.5V293H184.765Z" fill="#5E81AC"/>
<path id="W" d="M320 372C313.667 372 308.333 370.167 304 366.5C300 362.5 297.667 358 297 353L251 34.5V33C251 30 252 27.5 254 25.5C256.333 23.1666 259 22 262 22H355C361 22 365.333 23 368 25C371 27 372.667 30.5 373 35.5L390 176.5L410.5 114C413.833 104.333 419.5 99.5 427.5 99.5H478.5C486.5 99.5 492.167 104.333 495.5 114L516 176L533 35.5C533.333 30.5 534.833 27 537.5 25C540.5 23 545 22 551 22H644C647 22 649.5 23.1666 651.5 25.5C653.833 27.5 655 30 655 33V34.5L609 353C608.333 358 605.833 362.5 601.5 366.5C597.5 370.167 592.333 372 586 372H514.5C508.5 372 503.833 370.5 500.5 367.5C497.5 364.5 495.333 361.5 494 358.5L453 256L412 358.5C410.667 361.5 408.333 364.5 405 367.5C402 370.5 397.5 372 391.5 372H320Z" fill="#B48EAD"/>
<path id="Subtract_4" fill-rule="evenodd" clip-rule="evenodd" d="M258.727 88L297 353C297.667 358 300 362.5 304 366.5C308.333 370.167 313.667 372 320 372H391.5C397.5 372 402 370.5 405 367.5C408.333 364.5 410.667 361.5 412 358.5L453 256L494 358.5C495.333 361.5 497.5 364.5 500.5 367.5C503.833 370.5 508.5 372 514.5 372H586C592.333 372 597.5 370.167 601.5 366.5C605.833 362.5 608.333 358 609 353L647.273 88H526.648L516 176L495.5 114C492.167 104.333 486.5 99.5 478.5 99.5H427.5C419.5 99.5 413.833 104.333 410.5 114L390 176.5L379.33 88H258.727Z" fill="#A3BE8C"/>
<path id="Subtract_5" d="M268.981 159L280 234.5C284 234.5 317 234.5 325 234.5C330 234.5 364.667 234.5 371 234.5H405C411 234.5 427.5 234.5 432.5 234.5C437.5 234.5 446.5 234.5 455.5 234.5H483H530C532.5 234.5 540.5 234.5 559 234.5C563.5 234.5 568.5 234.5 574.5 234.5H589.5C595.833 234.5 603 234.5 609.5 234.5C616 234.5 620 234.5 626 234.5L637.019 159H518.057L516 176L510.379 159H395.74L390 176.5L387.89 159H268.981Z" fill="#EBCB8B"/>
<path id="Subtract_6" d="M280 234.5L289.5 301C298 301 303.5 301 311.5 301C317 301 324.173 301 330.5 301H388.5C394.494 301 404.5 301 412.5 301C418 301 429 301 435 301L453 256.5L471 301C475.5 301 501 301 507 301C511 301 518.066 301 522 301H548C554.327 301 580 301 585.5 301C591 301 608 301 616.5 301L626 234.5H280Z" fill="#D08770"/>
<g id="Subtract_7">
<path d="M289.49 301L297 353C297.667 358 300 362.5 304 366.5C308.333 370.167 313.667 372 320 372H391.5C397.5 372 402 370.5 405 367.5C408.333 364.5 410.667 361.5 412 358.5L435 301H289.49Z" fill="#BF616A"/>
<path d="M471 301L494 358.5C495.333 361.5 497.5 364.5 500.5 367.5C503.833 370.5 508.5 372 514.5 372H586C592.333 372 597.5 370.167 601.5 366.5C605.833 362.5 608.333 358 609 353L616.51 301H471Z" fill="#BF616A"/>
</g>
</g>
</svg>
